<?xml version="1.0" encoding="UTF-8" standalone="no"?>
<!DOCTYPE svg PUBLIC "-//W3C//DTD SVG 1.1//EN"
 "http://www.w3.org/Graphics/SVG/1.1/DTD/svg11.dtd">
<!-- Generated by graphviz version 2.42.4 (0)
 -->
<!-- Title: AST Pages: 1 -->
<svg width="334pt" height="476pt"
 viewBox="0.00 0.00 333.50 476.00" xmlns="http://www.w3.org/2000/svg" xmlns:xlink="http://www.w3.org/1999/xlink">
<g id="graph0" class="graph" transform="scale(1 1) rotate(0) translate(4 472)">
<title>AST</title>
<polygon fill="white" stroke="transparent" points="-4,4 -4,-472 329.5,-472 329.5,4 -4,4"/>
<!-- Program -->
<g id="node1" class="node">
<title>Program</title>
<polygon fill="none" stroke="black" points="223,-468 158,-468 158,-432 223,-432 223,-468"/>
<text text-anchor="middle" x="190.5" y="-446.3" font-family="Times,serif" font-size="14.00">Program</text>
</g>
<!-- 0x598625000020 -->
<g id="node2" class="node">
<title>0x598625000020</title>
<polygon fill="lightblue" stroke="black" points="109,-396 44,-396 44,-360 109,-360 109,-396"/>
<text text-anchor="middle" x="76.5" y="-374.3" font-family="Times,serif" font-size="14.00">Assign: i</text>
</g>
<!-- Program&#45;&gt;0x598625000020 -->
<g id="edge8" class="edge">
<title>Program&#45;&gt;0x598625000020</title>
<path fill="none" stroke="black" d="M162.61,-431.88C147.71,-422.72 129.17,-411.34 113.12,-401.48"/>
<polygon fill="black" stroke="black" points="114.85,-398.44 104.49,-396.19 111.19,-404.41 114.85,-398.44"/>
</g>
<!-- 0x5986250000b0 -->
<g id="node10" class="node">
<title>0x5986250000b0</title>
<polygon fill="none" stroke="black" points="181.5,-396 127.5,-396 127.5,-360 181.5,-360 181.5,-396"/>
<text text-anchor="middle" x="154.5" y="-374.3" font-family="Times,serif" font-size="14.00">Print</text>
</g>
<!-- Program&#45;&gt;0x5986250000b0 -->
<g id="edge10" class="edge">
<title>Program&#45;&gt;0x5986250000b0</title>
<path fill="none" stroke="black" d="M181.6,-431.7C177.5,-423.73 172.55,-414.1 168.01,-405.26"/>
<polygon fill="black" stroke="black" points="170.98,-403.4 163.3,-396.1 164.76,-406.6 170.98,-403.4"/>
</g>
<!-- 0x598625000060 -->
<g id="node12" class="node">
<title>0x598625000060</title>
<polygon fill="none" stroke="black" points="253.5,-396 199.5,-396 199.5,-360 253.5,-360 253.5,-396"/>
<text text-anchor="middle" x="226.5" y="-374.3" font-family="Times,serif" font-size="14.00">Print</text>
</g>
<!-- Program&#45;&gt;0x598625000060 -->
<g id="edge12" class="edge">
<title>Program&#45;&gt;0x598625000060</title>
<path fill="none" stroke="black" d="M199.4,-431.7C203.5,-423.73 208.45,-414.1 212.99,-405.26"/>
<polygon fill="black" stroke="black" points="216.24,-406.6 217.7,-396.1 210.02,-403.4 216.24,-406.6"/>
</g>
<!-- 0x5986250000d0 -->
<g id="node14" class="node">
<title>0x5986250000d0</title>
<polygon fill="none" stroke="black" points="325.5,-396 271.5,-396 271.5,-360 325.5,-360 325.5,-396"/>
<text text-anchor="middle" x="298.5" y="-374.3" font-family="Times,serif" font-size="14.00">Print</text>
</g>
<!-- Program&#45;&gt;0x5986250000d0 -->
<g id="edge14" class="edge">
<title>Program&#45;&gt;0x5986250000d0</title>
<path fill="none" stroke="black" d="M216.92,-431.88C230.91,-422.81 248.28,-411.55 263.39,-401.76"/>
<polygon fill="black" stroke="black" points="265.49,-404.57 271.98,-396.19 261.68,-398.69 265.49,-404.57"/>
</g>
<!-- 0x598624ffff40 -->
<g id="node3" class="node">
<title>0x598624ffff40</title>
<polygon fill="lightyellow" stroke="black" points="103.5,-324 49.5,-324 49.5,-288 103.5,-288 103.5,-324"/>
<text text-anchor="middle" x="76.5" y="-302.3" font-family="Times,serif" font-size="14.00">+</text>
</g>
<!-- 0x598625000020&#45;&gt;0x598624ffff40 -->
<g id="edge7" class="edge">
<title>0x598625000020&#45;&gt;0x598624ffff40</title>
<path fill="none" stroke="black" d="M76.5,-359.7C76.5,-351.98 76.5,-342.71 76.5,-334.11"/>
<polygon fill="black" stroke="black" points="80,-334.1 76.5,-324.1 73,-334.1 80,-334.1"/>
</g>
<!-- 0x598624ffff20 -->
<g id="node4" class="node">
<title>0x598624ffff20</title>
<polygon fill="none" stroke="black" points="59,-252 0,-252 0,-216 59,-216 59,-252"/>
<text text-anchor="middle" x="29.5" y="-230.3" font-family="Times,serif" font-size="14.00">Num: 2</text>
</g>
<!-- 0x598624ffff40&#45;&gt;0x598624ffff20 -->
<g id="edge5" class="edge">
<title>0x598624ffff40&#45;&gt;0x598624ffff20</title>
<path fill="none" stroke="black" d="M64.88,-287.7C59.36,-279.47 52.65,-269.48 46.57,-260.42"/>
<polygon fill="black" stroke="black" points="49.46,-258.46 40.98,-252.1 43.65,-262.36 49.46,-258.46"/>
</g>
<!-- 0x598624ffffe0 -->
<g id="node5" class="node">
<title>0x598624ffffe0</title>
<polygon fill="lightblue" stroke="black" points="170,-252 77,-252 77,-216 170,-216 170,-252"/>
<text text-anchor="middle" x="123.5" y="-230.3" font-family="Times,serif" font-size="14.00">Assign expr: j</text>
</g>
<!-- 0x598624ffff40&#45;&gt;0x598624ffffe0 -->
<g id="edge6" class="edge">
<title>0x598624ffff40&#45;&gt;0x598624ffffe0</title>
<path fill="none" stroke="black" d="M88.12,-287.7C93.64,-279.47 100.35,-269.48 106.43,-260.42"/>
<polygon fill="black" stroke="black" points="109.35,-262.36 112.02,-252.1 103.54,-258.46 109.35,-262.36"/>
</g>
<!-- 0x598624ffff90 -->
<g id="node6" class="node">
<title>0x598624ffff90</title>
<polygon fill="lightyellow" stroke="black" points="150.5,-180 96.5,-180 96.5,-144 150.5,-144 150.5,-180"/>
<text text-anchor="middle" x="123.5" y="-158.3" font-family="Times,serif" font-size="14.00">+</text>
</g>
<!-- 0x598624ffffe0&#45;&gt;0x598624ffff90 -->
<g id="edge4" class="edge">
<title>0x598624ffffe0&#45;&gt;0x598624ffff90</title>
<path fill="none" stroke="black" d="M123.5,-215.7C123.5,-207.98 123.5,-198.71 123.5,-190.11"/>
<polygon fill="black" stroke="black" points="127,-190.1 123.5,-180.1 120,-190.1 127,-190.1"/>
</g>
<!-- 0x598624ffff70 -->
<g id="node7" class="node">
<title>0x598624ffff70</title>
<polygon fill="none" stroke="black" points="105,-108 46,-108 46,-72 105,-72 105,-108"/>
<text text-anchor="middle" x="75.5" y="-86.3" font-family="Times,serif" font-size="14.00">Num: 1</text>
</g>
<!-- 0x598624ffff90&#45;&gt;0x598624ffff70 -->
<g id="edge2" class="edge">
<title>0x598624ffff90&#45;&gt;0x598624ffff70</title>
<path fill="none" stroke="black" d="M111.63,-143.7C106,-135.47 99.15,-125.48 92.93,-116.42"/>
<polygon fill="black" stroke="black" points="95.77,-114.37 87.23,-108.1 90,-118.33 95.77,-114.37"/>
</g>
<!-- 0x598624ffabb0 -->
<g id="node8" class="node">
<title>0x598624ffabb0</title>
<polygon fill="lightblue" stroke="black" points="219.5,-108 123.5,-108 123.5,-72 219.5,-72 219.5,-108"/>
<text text-anchor="middle" x="171.5" y="-86.3" font-family="Times,serif" font-size="14.00">Assign expr: k</text>
</g>
<!-- 0x598624ffff90&#45;&gt;0x598624ffabb0 -->
<g id="edge3" class="edge">
<title>0x598624ffff90&#45;&gt;0x598624ffabb0</title>
<path fill="none" stroke="black" d="M135.37,-143.7C141,-135.47 147.85,-125.48 154.07,-116.42"/>
<polygon fill="black" stroke="black" points="157,-118.33 159.77,-108.1 151.23,-114.37 157,-118.33"/>
</g>
<!-- 0x598624ffffc0 -->
<g id="node9" class="node">
<title>0x598624ffffc0</title>
<polygon fill="none" stroke="black" points="201,-36 142,-36 142,0 201,0 201,-36"/>
<text text-anchor="middle" x="171.5" y="-14.3" font-family="Times,serif" font-size="14.00">Num: 1</text>
</g>
<!-- 0x598624ffabb0&#45;&gt;0x598624ffffc0 -->
<g id="edge1" class="edge">
<title>0x598624ffabb0&#45;&gt;0x598624ffffc0</title>
<path fill="none" stroke="black" d="M171.5,-71.7C171.5,-63.98 171.5,-54.71 171.5,-46.11"/>
<polygon fill="black" stroke="black" points="175,-46.1 171.5,-36.1 168,-46.1 175,-46.1"/>
</g>
<!-- 0x598625000080 -->
<g id="node11" class="node">
<title>0x598625000080</title>
<polygon fill="none" stroke="black" points="181.5,-324 127.5,-324 127.5,-288 181.5,-288 181.5,-324"/>
<text text-anchor="middle" x="154.5" y="-302.3" font-family="Times,serif" font-size="14.00">Var: k</text>
</g>
<!-- 0x5986250000b0&#45;&gt;0x598625000080 -->
<g id="edge9" class="edge">
<title>0x5986250000b0&#45;&gt;0x598625000080</title>
<path fill="none" stroke="black" d="M154.5,-359.7C154.5,-351.98 154.5,-342.71 154.5,-334.11"/>
<polygon fill="black" stroke="black" points="158,-334.1 154.5,-324.1 151,-334.1 158,-334.1"/>
</g>
<!-- 0x5986250000f0 -->
<g id="node13" class="node">
<title>0x5986250000f0</title>
<polygon fill="none" stroke="black" points="253.5,-324 199.5,-324 199.5,-288 253.5,-288 253.5,-324"/>
<text text-anchor="middle" x="226.5" y="-302.3" font-family="Times,serif" font-size="14.00">Var: j</text>
</g>
<!-- 0x598625000060&#45;&gt;0x5986250000f0 -->
<g id="edge11" class="edge">
<title>0x598625000060&#45;&gt;0x5986250000f0</title>
<path fill="none" stroke="black" d="M226.5,-359.7C226.5,-351.98 226.5,-342.71 226.5,-334.11"/>
<polygon fill="black" stroke="black" points="230,-334.1 226.5,-324.1 223,-334.1 230,-334.1"/>
</g>
<!-- 0x598625000150 -->
<g id="node15" class="node">
<title>0x598625000150</title>
<polygon fill="none" stroke="black" points="325.5,-324 271.5,-324 271.5,-288 325.5,-288 325.5,-324"/>
<text text-anchor="middle" x="298.5" y="-302.3" font-family="Times,serif" font-size="14.00">Var: i</text>
</g>
<!-- 0x5986250000d0&#45;&gt;0x598625000150 -->
<g id="edge13" class="edge">
<title>0x5986250000d0&#45;&gt;0x598625000150</title>
<path fill="none" stroke="black" d="M298.5,-359.7C298.5,-351.98 298.5,-342.71 298.5,-334.11"/>
<polygon fill="black" stroke="black" points="302,-334.1 298.5,-324.1 295,-334.1 302,-334.1"/>
</g>
</g>
</svg>
