<?xml version="1.0" encoding="UTF-8" standalone="no"?>
<!DOCTYPE svg PUBLIC "-//W3C//DTD SVG 1.1//EN"
 "http://www.w3.org/Graphics/SVG/1.1/DTD/svg11.dtd">
<!-- Generated by graphviz version 2.43.0 (0)
 -->
<!-- Title: AST Pages: 1 -->
<svg width="501pt" height="332pt"
 viewBox="0.00 0.00 500.50 332.00" xmlns="http://www.w3.org/2000/svg" xmlns:xlink="http://www.w3.org/1999/xlink">
<g id="graph0" class="graph" transform="scale(1 1) rotate(0) translate(4 328)">
<title>AST</title>
<polygon fill="white" stroke="transparent" points="-4,4 -4,-328 496.5,-328 496.5,4 -4,4"/>
<!-- 0x5b32ff5c9500 -->
<g id="node1" class="node">
<title>0x5b32ff5c9500</title>
<polygon fill="none" stroke="black" points="272.5,-324 193.5,-324 193.5,-288 272.5,-288 272.5,-324"/>
<text text-anchor="middle" x="233" y="-302.3" font-family="Times,serif" font-size="14.00">Program</text>
</g>
<!-- 0x504000000010 -->
<g id="node2" class="node">
<title>0x504000000010</title>
<polygon fill="lightblue" stroke="black" points="110,-252 0,-252 0,-216 110,-216 110,-252"/>
<text text-anchor="middle" x="55" y="-230.3" font-family="Times,serif" font-size="14.00">Assign: iters </text>
</g>
<!-- 0x5b32ff5c9500&#45;&gt;0x504000000010 -->
<g id="edge2" class="edge">
<title>0x5b32ff5c9500&#45;&gt;0x504000000010</title>
<path fill="none" stroke="black" d="M193.5,-289.46C168.3,-279.56 135.35,-266.6 107.9,-255.8"/>
<polygon fill="black" stroke="black" points="109.03,-252.49 98.45,-252.09 106.47,-259 109.03,-252.49"/>
</g>
<!-- 0x504000000090 -->
<g id="node4" class="node">
<title>0x504000000090</title>
<polygon fill="lightblue" stroke="black" points="238,-252 128,-252 128,-216 238,-216 238,-252"/>
<text text-anchor="middle" x="183" y="-230.3" font-family="Times,serif" font-size="14.00">Assign: iters </text>
</g>
<!-- 0x5b32ff5c9500&#45;&gt;0x504000000090 -->
<g id="edge6" class="edge">
<title>0x5b32ff5c9500&#45;&gt;0x504000000090</title>
<path fill="none" stroke="black" d="M220.64,-287.7C214.77,-279.47 207.63,-269.48 201.16,-260.42"/>
<polygon fill="black" stroke="black" points="203.88,-258.21 195.22,-252.1 198.18,-262.28 203.88,-258.21"/>
</g>
<!-- 0x503000000370 -->
<g id="node8" class="node">
<title>0x503000000370</title>
<polygon fill="none" stroke="black" points="312,-252 256,-252 256,-216 312,-216 312,-252"/>
<text text-anchor="middle" x="284" y="-230.3" font-family="Times,serif" font-size="14.00">Block</text>
</g>
<!-- 0x5b32ff5c9500&#45;&gt;0x503000000370 -->
<g id="edge7" class="edge">
<title>0x5b32ff5c9500&#45;&gt;0x503000000370</title>
<path fill="none" stroke="black" d="M245.61,-287.7C251.6,-279.47 258.88,-269.48 265.48,-260.42"/>
<polygon fill="black" stroke="black" points="268.48,-262.25 271.54,-252.1 262.82,-258.13 268.48,-262.25"/>
</g>
<!-- 0x503000000430 -->
<g id="node9" class="node">
<title>0x503000000430</title>
<polygon fill="none" stroke="black" points="384,-252 330,-252 330,-216 384,-216 384,-252"/>
<text text-anchor="middle" x="357" y="-230.3" font-family="Times,serif" font-size="14.00">Print</text>
</g>
<!-- 0x5b32ff5c9500&#45;&gt;0x503000000430 -->
<g id="edge13" class="edge">
<title>0x5b32ff5c9500&#45;&gt;0x503000000430</title>
<path fill="none" stroke="black" d="M263.33,-287.88C280.75,-278.04 302.73,-265.64 321.02,-255.31"/>
<polygon fill="black" stroke="black" points="322.95,-258.24 329.93,-250.28 319.5,-252.15 322.95,-258.24"/>
</g>
<!-- 0x502000000050 -->
<g id="node3" class="node">
<title>0x502000000050</title>
<polygon fill="none" stroke="black" points="89.5,-180 20.5,-180 20.5,-144 89.5,-144 89.5,-180"/>
<text text-anchor="middle" x="55" y="-158.3" font-family="Times,serif" font-size="14.00">Num: 0</text>
</g>
<!-- 0x504000000010&#45;&gt;0x502000000050 -->
<g id="edge1" class="edge">
<title>0x504000000010&#45;&gt;0x502000000050</title>
<path fill="none" stroke="black" d="M55,-215.7C55,-207.98 55,-198.71 55,-190.11"/>
<polygon fill="black" stroke="black" points="58.5,-190.1 55,-180.1 51.5,-190.1 58.5,-190.1"/>
</g>
<!-- 0x503000000340 -->
<g id="node5" class="node">
<title>0x503000000340</title>
<polygon fill="lightyellow" stroke="black" points="210,-180 156,-180 156,-144 210,-144 210,-180"/>
<text text-anchor="middle" x="183" y="-158.3" font-family="Times,serif" font-size="14.00">&#45;</text>
</g>
<!-- 0x504000000090&#45;&gt;0x503000000340 -->
<g id="edge5" class="edge">
<title>0x504000000090&#45;&gt;0x503000000340</title>
<path fill="none" stroke="black" d="M183,-215.7C183,-207.98 183,-198.71 183,-190.11"/>
<polygon fill="black" stroke="black" points="186.5,-190.1 183,-180.1 179.5,-190.1 186.5,-190.1"/>
</g>
<!-- 0x504000000050 -->
<g id="node6" class="node">
<title>0x504000000050</title>
<polygon fill="none" stroke="black" points="152.5,-108 69.5,-108 69.5,-72 152.5,-72 152.5,-108"/>
<text text-anchor="middle" x="111" y="-86.3" font-family="Times,serif" font-size="14.00">Var: iters</text>
</g>
<!-- 0x503000000340&#45;&gt;0x504000000050 -->
<g id="edge3" class="edge">
<title>0x503000000340&#45;&gt;0x504000000050</title>
<path fill="none" stroke="black" d="M165.2,-143.7C156.4,-135.14 145.62,-124.66 136,-115.3"/>
<polygon fill="black" stroke="black" points="138.2,-112.57 128.59,-108.1 133.32,-117.58 138.2,-112.57"/>
</g>
<!-- 0x502000000090 -->
<g id="node7" class="node">
<title>0x502000000090</title>
<polygon fill="none" stroke="black" points="239.5,-108 170.5,-108 170.5,-72 239.5,-72 239.5,-108"/>
<text text-anchor="middle" x="205" y="-86.3" font-family="Times,serif" font-size="14.00">Num: 1</text>
</g>
<!-- 0x503000000340&#45;&gt;0x502000000090 -->
<g id="edge4" class="edge">
<title>0x503000000340&#45;&gt;0x502000000090</title>
<path fill="none" stroke="black" d="M188.44,-143.7C190.89,-135.9 193.84,-126.51 196.57,-117.83"/>
<polygon fill="black" stroke="black" points="199.96,-118.69 199.62,-108.1 193.29,-116.59 199.96,-118.69"/>
</g>
<!-- 0x503000000400 -->
<g id="node10" class="node">
<title>0x503000000400</title>
<polygon fill="lightyellow" stroke="black" points="384,-180 330,-180 330,-144 384,-144 384,-180"/>
<text text-anchor="middle" x="357" y="-158.3" font-family="Times,serif" font-size="14.00">+</text>
</g>
<!-- 0x503000000430&#45;&gt;0x503000000400 -->
<g id="edge12" class="edge">
<title>0x503000000430&#45;&gt;0x503000000400</title>
<path fill="none" stroke="black" d="M357,-215.7C357,-207.98 357,-198.71 357,-190.11"/>
<polygon fill="black" stroke="black" points="360.5,-190.1 357,-180.1 353.5,-190.1 360.5,-190.1"/>
</g>
<!-- 0x5020000000d0 -->
<g id="node11" class="node">
<title>0x5020000000d0</title>
<polygon fill="none" stroke="black" points="369.5,-108 300.5,-108 300.5,-72 369.5,-72 369.5,-108"/>
<text text-anchor="middle" x="335" y="-86.3" font-family="Times,serif" font-size="14.00">Num: 2</text>
</g>
<!-- 0x503000000400&#45;&gt;0x5020000000d0 -->
<g id="edge8" class="edge">
<title>0x503000000400&#45;&gt;0x5020000000d0</title>
<path fill="none" stroke="black" d="M351.56,-143.7C349.11,-135.9 346.16,-126.51 343.43,-117.83"/>
<polygon fill="black" stroke="black" points="346.71,-116.59 340.38,-108.1 340.04,-118.69 346.71,-116.59"/>
</g>
<!-- 0x5030000003d0 -->
<g id="node12" class="node">
<title>0x5030000003d0</title>
<polygon fill="lightyellow" stroke="black" points="442,-108 388,-108 388,-72 442,-72 442,-108"/>
<text text-anchor="middle" x="415" y="-86.3" font-family="Times,serif" font-size="14.00">*</text>
</g>
<!-- 0x503000000400&#45;&gt;0x5030000003d0 -->
<g id="edge11" class="edge">
<title>0x503000000400&#45;&gt;0x5030000003d0</title>
<path fill="none" stroke="black" d="M371.34,-143.7C378.29,-135.3 386.77,-125.07 394.4,-115.86"/>
<polygon fill="black" stroke="black" points="397.14,-118.04 400.83,-108.1 391.75,-113.57 397.14,-118.04"/>
</g>
<!-- 0x5020000000f0 -->
<g id="node13" class="node">
<title>0x5020000000f0</title>
<polygon fill="none" stroke="black" points="405.5,-36 336.5,-36 336.5,0 405.5,0 405.5,-36"/>
<text text-anchor="middle" x="371" y="-14.3" font-family="Times,serif" font-size="14.00">Num: 2</text>
</g>
<!-- 0x5030000003d0&#45;&gt;0x5020000000f0 -->
<g id="edge9" class="edge">
<title>0x5030000003d0&#45;&gt;0x5020000000f0</title>
<path fill="none" stroke="black" d="M404.12,-71.7C399.01,-63.56 392.8,-53.69 387.16,-44.7"/>
<polygon fill="black" stroke="black" points="390.04,-42.71 381.75,-36.1 384.11,-46.43 390.04,-42.71"/>
</g>
<!-- 0x502000000110 -->
<g id="node14" class="node">
<title>0x502000000110</title>
<polygon fill="none" stroke="black" points="492.5,-36 423.5,-36 423.5,0 492.5,0 492.5,-36"/>
<text text-anchor="middle" x="458" y="-14.3" font-family="Times,serif" font-size="14.00">Num: 2</text>
</g>
<!-- 0x5030000003d0&#45;&gt;0x502000000110 -->
<g id="edge10" class="edge">
<title>0x5030000003d0&#45;&gt;0x502000000110</title>
<path fill="none" stroke="black" d="M425.63,-71.7C430.63,-63.56 436.69,-53.69 442.21,-44.7"/>
<polygon fill="black" stroke="black" points="445.24,-46.46 447.49,-36.1 439.28,-42.79 445.24,-46.46"/>
</g>
</g>
</svg>
