<?xml version="1.0" encoding="UTF-8" standalone="no"?>
<!DOCTYPE svg PUBLIC "-//W3C//DTD SVG 1.1//EN"
 "http://www.w3.org/Graphics/SVG/1.1/DTD/svg11.dtd">
<!-- Generated by graphviz version 2.43.0 (0)
 -->
<!-- Title: AST Pages: 1 -->
<svg width="254pt" height="188pt"
 viewBox="0.00 0.00 254.00 188.00" xmlns="http://www.w3.org/2000/svg" xmlns:xlink="http://www.w3.org/1999/xlink">
<g id="graph0" class="graph" transform="scale(1 1) rotate(0) translate(4 184)">
<title>AST</title>
<polygon fill="white" stroke="transparent" points="-4,4 -4,-184 250,-184 250,4 -4,4"/>
<!-- Program -->
<g id="node1" class="node">
<title>Program</title>
<polygon fill="none" stroke="black" points="174.5,-180 95.5,-180 95.5,-144 174.5,-144 174.5,-180"/>
<text text-anchor="middle" x="135" y="-158.3" font-family="Times,serif" font-size="14.00">Program</text>
</g>
<!-- 0x504000002090 -->
<g id="node2" class="node">
<title>0x504000002090</title>
<polygon fill="lightblue" stroke="black" points="86,-108 0,-108 0,-72 86,-72 86,-108"/>
<text text-anchor="middle" x="43" y="-86.3" font-family="Times,serif" font-size="14.00">Assign: a </text>
</g>
<!-- Program&#45;&gt;0x504000002090 -->
<g id="edge2" class="edge">
<title>Program&#45;&gt;0x504000002090</title>
<path fill="none" stroke="black" d="M112.26,-143.7C100.56,-134.8 86.14,-123.82 73.49,-114.2"/>
<polygon fill="black" stroke="black" points="75.56,-111.37 65.48,-108.1 71.32,-116.94 75.56,-111.37"/>
</g>
<!-- 0x5060000031a0 -->
<g id="node4" class="node">
<title>0x5060000031a0</title>
<polygon fill="lightblue" stroke="black" points="166,-108 104,-108 104,-72 166,-72 166,-108"/>
<text text-anchor="middle" x="135" y="-86.3" font-family="Times,serif" font-size="14.00">a += :</text>
</g>
<!-- Program&#45;&gt;0x5060000031a0 -->
<g id="edge4" class="edge">
<title>Program&#45;&gt;0x5060000031a0</title>
<path fill="none" stroke="black" d="M135,-143.7C135,-135.98 135,-126.71 135,-118.11"/>
<polygon fill="black" stroke="black" points="138.5,-118.1 135,-108.1 131.5,-118.1 138.5,-118.1"/>
</g>
<!-- 0x5020000000d0 -->
<g id="node6" class="node">
<title>0x5020000000d0</title>
<polygon fill="none" stroke="black" points="241,-108 187,-108 187,-72 241,-72 241,-108"/>
<text text-anchor="middle" x="214" y="-86.3" font-family="Times,serif" font-size="14.00">Print</text>
</g>
<!-- Program&#45;&gt;0x5020000000d0 -->
<g id="edge6" class="edge">
<title>Program&#45;&gt;0x5020000000d0</title>
<path fill="none" stroke="black" d="M154.53,-143.7C164.38,-134.97 176.49,-124.24 187.2,-114.75"/>
<polygon fill="black" stroke="black" points="189.53,-117.36 194.7,-108.1 184.89,-112.12 189.53,-117.36"/>
</g>
<!-- 0x502000000050 -->
<g id="node3" class="node">
<title>0x502000000050</title>
<polygon fill="none" stroke="black" points="82,-36 4,-36 4,0 82,0 82,-36"/>
<text text-anchor="middle" x="43" y="-14.3" font-family="Times,serif" font-size="14.00">Num: 10</text>
</g>
<!-- 0x504000002090&#45;&gt;0x502000000050 -->
<g id="edge1" class="edge">
<title>0x504000002090&#45;&gt;0x502000000050</title>
<path fill="none" stroke="black" d="M43,-71.7C43,-63.98 43,-54.71 43,-46.11"/>
<polygon fill="black" stroke="black" points="46.5,-46.1 43,-36.1 39.5,-46.1 46.5,-46.1"/>
</g>
<!-- 0x502000000090 -->
<g id="node5" class="node">
<title>0x502000000090</title>
<polygon fill="none" stroke="black" points="169.5,-36 100.5,-36 100.5,0 169.5,0 169.5,-36"/>
<text text-anchor="middle" x="135" y="-14.3" font-family="Times,serif" font-size="14.00">Num: 5</text>
</g>
<!-- 0x5060000031a0&#45;&gt;0x502000000090 -->
<g id="edge3" class="edge">
<title>0x5060000031a0&#45;&gt;0x502000000090</title>
<path fill="none" stroke="black" d="M135,-71.7C135,-63.98 135,-54.71 135,-46.11"/>
<polygon fill="black" stroke="black" points="138.5,-46.1 135,-36.1 131.5,-46.1 138.5,-46.1"/>
</g>
<!-- 0x5040000020d0 -->
<g id="node7" class="node">
<title>0x5040000020d0</title>
<polygon fill="none" stroke="black" points="246,-36 188,-36 188,0 246,0 246,-36"/>
<text text-anchor="middle" x="217" y="-14.3" font-family="Times,serif" font-size="14.00">Var: a</text>
</g>
<!-- 0x5020000000d0&#45;&gt;0x5040000020d0 -->
<g id="edge5" class="edge">
<title>0x5020000000d0&#45;&gt;0x5040000020d0</title>
<path fill="none" stroke="black" d="M214.74,-71.7C215.07,-63.98 215.47,-54.71 215.84,-46.11"/>
<polygon fill="black" stroke="black" points="219.34,-46.25 216.27,-36.1 212.34,-45.95 219.34,-46.25"/>
</g>
</g>
</svg>
