<?xml version="1.0" encoding="UTF-8" standalone="no"?>
<!DOCTYPE svg PUBLIC "-//W3C//DTD SVG 1.1//EN"
 "http://www.w3.org/Graphics/SVG/1.1/DTD/svg11.dtd">
<!-- Generated by graphviz version 2.43.0 (0)
 -->
<!-- Title: AST Pages: 1 -->
<svg width="87pt" height="188pt"
 viewBox="0.00 0.00 87.00 188.00" xmlns="http://www.w3.org/2000/svg" xmlns:xlink="http://www.w3.org/1999/xlink">
<g id="graph0" class="graph" transform="scale(1 1) rotate(0) translate(4 184)">
<title>AST</title>
<polygon fill="white" stroke="transparent" points="-4,4 -4,-184 83,-184 83,4 -4,4"/>
<!-- 0x56f63c01b538 -->
<g id="node1" class="node">
<title>0x56f63c01b538</title>
<polygon fill="none" stroke="black" points="79,-180 0,-180 0,-144 79,-144 79,-180"/>
<text text-anchor="middle" x="39.5" y="-158.3" font-family="Times,serif" font-size="14.00">Program</text>
</g>
<!-- 0x502000000070 -->
<g id="node2" class="node">
<title>0x502000000070</title>
<polygon fill="none" stroke="black" points="66.5,-108 12.5,-108 12.5,-72 66.5,-72 66.5,-108"/>
<text text-anchor="middle" x="39.5" y="-86.3" font-family="Times,serif" font-size="14.00">Print</text>
</g>
<!-- 0x56f63c01b538&#45;&gt;0x502000000070 -->
<g id="edge2" class="edge">
<title>0x56f63c01b538&#45;&gt;0x502000000070</title>
<path fill="none" stroke="black" d="M39.5,-143.7C39.5,-135.98 39.5,-126.71 39.5,-118.11"/>
<polygon fill="black" stroke="black" points="43,-118.1 39.5,-108.1 36,-118.1 43,-118.1"/>
</g>
<!-- 0x502000000050 -->
<g id="node3" class="node">
<title>0x502000000050</title>
<polygon fill="none" stroke="black" points="74,-36 5,-36 5,0 74,0 74,-36"/>
<text text-anchor="middle" x="39.5" y="-14.3" font-family="Times,serif" font-size="14.00">Num: 0</text>
</g>
<!-- 0x502000000070&#45;&gt;0x502000000050 -->
<g id="edge1" class="edge">
<title>0x502000000070&#45;&gt;0x502000000050</title>
<path fill="none" stroke="black" d="M39.5,-71.7C39.5,-63.98 39.5,-54.71 39.5,-46.11"/>
<polygon fill="black" stroke="black" points="43,-46.1 39.5,-36.1 36,-46.1 43,-46.1"/>
</g>
</g>
</svg>
