<?xml version="1.0" encoding="UTF-8" standalone="no"?>
<!DOCTYPE svg PUBLIC "-//W3C//DTD SVG 1.1//EN"
 "http://www.w3.org/Graphics/SVG/1.1/DTD/svg11.dtd">
<!-- Generated by graphviz version 2.43.0 (0)
 -->
<!-- Title: AST Pages: 1 -->
<svg width="896pt" height="188pt"
 viewBox="0.00 0.00 896.00 188.00" xmlns="http://www.w3.org/2000/svg" xmlns:xlink="http://www.w3.org/1999/xlink">
<g id="graph0" class="graph" transform="scale(1 1) rotate(0) translate(4 184)">
<title>AST</title>
<polygon fill="white" stroke="transparent" points="-4,4 -4,-184 892,-184 892,4 -4,4"/>
<!-- 0x5c62cbc2c700 -->
<g id="node1" class="node">
<title>0x5c62cbc2c700</title>
<polygon fill="none" stroke="black" points="493,-180 414,-180 414,-144 493,-144 493,-180"/>
<text text-anchor="middle" x="453.5" y="-158.3" font-family="Times,serif" font-size="14.00">Program</text>
</g>
<!-- 0x5030000004c0 -->
<g id="node2" class="node">
<title>0x5030000004c0</title>
<polygon fill="none" stroke="black" points="480.5,-108 426.5,-108 426.5,-72 480.5,-72 480.5,-108"/>
<text text-anchor="middle" x="453.5" y="-86.3" font-family="Times,serif" font-size="14.00">Print</text>
</g>
<!-- 0x5c62cbc2c700&#45;&gt;0x5030000004c0 -->
<g id="edge9" class="edge">
<title>0x5c62cbc2c700&#45;&gt;0x5030000004c0</title>
<path fill="none" stroke="black" d="M453.5,-143.7C453.5,-135.98 453.5,-126.71 453.5,-118.11"/>
<polygon fill="black" stroke="black" points="457,-118.1 453.5,-108.1 450,-118.1 457,-118.1"/>
</g>
<!-- 0x502000000050 -->
<g id="node3" class="node">
<title>0x502000000050</title>
<polygon fill="none" stroke="black" points="69,-36 0,-36 0,0 69,0 69,-36"/>
<text text-anchor="middle" x="34.5" y="-14.3" font-family="Times,serif" font-size="14.00">Num: 1</text>
</g>
<!-- 0x5030000004c0&#45;&gt;0x502000000050 -->
<g id="edge1" class="edge">
<title>0x5030000004c0&#45;&gt;0x502000000050</title>
<path fill="none" stroke="black" d="M426.26,-87.29C365.37,-83.01 213.73,-69.86 79.38,-35.87"/>
<polygon fill="black" stroke="black" points="79.88,-32.39 69.33,-33.28 78.14,-39.17 79.88,-32.39"/>
</g>
<!-- 0x504000000050 -->
<g id="node4" class="node">
<title>0x504000000050</title>
<polygon fill="none" stroke="black" points="213.5,-36 87.5,-36 87.5,0 213.5,0 213.5,-36"/>
<text text-anchor="middle" x="150.5" y="-14.3" font-family="Times,serif" font-size="14.00">STRING: &#160;pizda</text>
</g>
<!-- 0x5030000004c0&#45;&gt;0x504000000050 -->
<g id="edge2" class="edge">
<title>0x5030000004c0&#45;&gt;0x504000000050</title>
<path fill="none" stroke="black" d="M426.46,-82.85C385.08,-73.44 303.31,-54.78 223.89,-36.32"/>
<polygon fill="black" stroke="black" points="224.24,-32.81 213.71,-33.95 222.66,-39.62 224.24,-32.81"/>
</g>
<!-- 0x5020000000b0 -->
<g id="node5" class="node">
<title>0x5020000000b0</title>
<polygon fill="none" stroke="black" points="301,-36 232,-36 232,0 301,0 301,-36"/>
<text text-anchor="middle" x="266.5" y="-14.3" font-family="Times,serif" font-size="14.00">Num: 2</text>
</g>
<!-- 0x5030000004c0&#45;&gt;0x5020000000b0 -->
<g id="edge3" class="edge">
<title>0x5030000004c0&#45;&gt;0x5020000000b0</title>
<path fill="none" stroke="black" d="M426.36,-79.23C399.22,-69.41 356.09,-53.68 310.63,-36.4"/>
<polygon fill="black" stroke="black" points="311.8,-33.09 301.21,-32.8 309.3,-39.64 311.8,-33.09"/>
</g>
<!-- 0x504000000090 -->
<g id="node6" class="node">
<title>0x504000000090</title>
<polygon fill="none" stroke="black" points="464,-36 319,-36 319,0 464,0 464,-36"/>
<text text-anchor="middle" x="391.5" y="-14.3" font-family="Times,serif" font-size="14.00">STRING: &#160;parasha</text>
</g>
<!-- 0x5030000004c0&#45;&gt;0x504000000090 -->
<g id="edge4" class="edge">
<title>0x5030000004c0&#45;&gt;0x504000000090</title>
<path fill="none" stroke="black" d="M438.17,-71.7C430.74,-63.3 421.68,-53.07 413.52,-43.86"/>
<polygon fill="black" stroke="black" points="415.9,-41.27 406.65,-36.1 410.66,-45.91 415.9,-41.27"/>
</g>
<!-- 0x5020000000d0 -->
<g id="node7" class="node">
<title>0x5020000000d0</title>
<polygon fill="none" stroke="black" points="551,-36 482,-36 482,0 551,0 551,-36"/>
<text text-anchor="middle" x="516.5" y="-14.3" font-family="Times,serif" font-size="14.00">Num: 3</text>
</g>
<!-- 0x5030000004c0&#45;&gt;0x5020000000d0 -->
<g id="edge5" class="edge">
<title>0x5030000004c0&#45;&gt;0x5020000000d0</title>
<path fill="none" stroke="black" d="M469.07,-71.7C476.7,-63.22 486.02,-52.86 494.38,-43.58"/>
<polygon fill="black" stroke="black" points="497.02,-45.88 501.11,-36.1 491.81,-41.2 497.02,-45.88"/>
</g>
<!-- 0x5040000000d0 -->
<g id="node8" class="node">
<title>0x5040000000d0</title>
<polygon fill="none" stroke="black" points="700,-36 569,-36 569,0 700,0 700,-36"/>
<text text-anchor="middle" x="634.5" y="-14.3" font-family="Times,serif" font-size="14.00">STRING: &#160;govno</text>
</g>
<!-- 0x5030000004c0&#45;&gt;0x5040000000d0 -->
<g id="edge6" class="edge">
<title>0x5030000004c0&#45;&gt;0x5040000000d0</title>
<path fill="none" stroke="black" d="M480.6,-78.52C506.99,-68.31 547.83,-52.52 580.81,-39.76"/>
<polygon fill="black" stroke="black" points="582.26,-42.96 590.33,-36.08 579.74,-36.43 582.26,-42.96"/>
</g>
<!-- 0x5020000000f0 -->
<g id="node9" class="node">
<title>0x5020000000f0</title>
<polygon fill="none" stroke="black" points="787,-36 718,-36 718,0 787,0 787,-36"/>
<text text-anchor="middle" x="752.5" y="-14.3" font-family="Times,serif" font-size="14.00">Num: 4</text>
</g>
<!-- 0x5030000004c0&#45;&gt;0x5020000000f0 -->
<g id="edge7" class="edge">
<title>0x5030000004c0&#45;&gt;0x5020000000f0</title>
<path fill="none" stroke="black" d="M480.79,-84.94C526.3,-77.83 620.6,-61.65 708.13,-36.16"/>
<polygon fill="black" stroke="black" points="709.35,-39.45 717.95,-33.25 707.36,-32.74 709.35,-39.45"/>
</g>
<!-- 0x504000000110 -->
<g id="node10" class="node">
<title>0x504000000110</title>
<polygon fill="none" stroke="black" points="888,-36 805,-36 805,0 888,0 888,-36"/>
<text text-anchor="middle" x="846.5" y="-14.3" font-family="Times,serif" font-size="14.00">STRING: </text>
</g>
<!-- 0x5030000004c0&#45;&gt;0x504000000110 -->
<g id="edge8" class="edge">
<title>0x5030000004c0&#45;&gt;0x504000000110</title>
<path fill="none" stroke="black" d="M480.94,-86.4C537.98,-80.66 673.52,-65.19 795.08,-36.13"/>
<polygon fill="black" stroke="black" points="796.03,-39.51 804.92,-33.74 794.38,-32.7 796.03,-39.51"/>
</g>
</g>
</svg>
