<?xml version="1.0" encoding="UTF-8" standalone="no"?>
<!DOCTYPE svg PUBLIC "-//W3C//DTD SVG 1.1//EN"
 "http://www.w3.org/Graphics/SVG/1.1/DTD/svg11.dtd">
<!-- Generated by graphviz version 2.42.4 (0)
 -->
<!-- Title: AST Pages: 1 -->
<svg width="783pt" height="350pt"
 viewBox="0.00 0.00 782.50 350.00" xmlns="http://www.w3.org/2000/svg" xmlns:xlink="http://www.w3.org/1999/xlink">
<g id="graph0" class="graph" transform="scale(1 1) rotate(0) translate(4 346)">
<title>AST</title>
<polygon fill="white" stroke="transparent" points="-4,4 -4,-346 778.5,-346 778.5,4 -4,4"/>
<!-- Program -->
<g id="node1" class="node">
<title>Program</title>
<polygon fill="none" stroke="black" points="267,-342 202,-342 202,-306 267,-306 267,-342"/>
<text text-anchor="middle" x="234.5" y="-320.3" font-family="Times,serif" font-size="14.00">Program</text>
</g>
<!-- 0x559f3f2555e0 -->
<g id="node2" class="node">
<title>0x559f3f2555e0</title>
<polygon fill="lightblue" stroke="black" points="75,-269 0,-269 0,-233 75,-233 75,-269"/>
<text text-anchor="middle" x="37.5" y="-247.3" font-family="Times,serif" font-size="14.00">Assign: fst</text>
</g>
<!-- Program&#45;&gt;0x559f3f2555e0 -->
<g id="edge2" class="edge">
<title>Program&#45;&gt;0x559f3f2555e0</title>
<path fill="none" stroke="black" d="M201.72,-311.22C173.29,-300.99 130.78,-285.69 84.76,-269.09"/>
<polygon fill="black" stroke="black" points="85.8,-265.75 75.21,-265.64 83.43,-272.33 85.8,-265.75"/>
</g>
<!-- 0x559f3f256000 -->
<g id="node4" class="node">
<title>0x559f3f256000</title>
<polygon fill="lightblue" stroke="black" points="173.5,-269 93.5,-269 93.5,-233 173.5,-233 173.5,-269"/>
<text text-anchor="middle" x="133.5" y="-247.3" font-family="Times,serif" font-size="14.00">Assign: snd</text>
</g>
<!-- Program&#45;&gt;0x559f3f256000 -->
<g id="edge4" class="edge">
<title>Program&#45;&gt;0x559f3f256000</title>
<path fill="none" stroke="black" d="M210.31,-305.99C197.16,-296.75 180.72,-285.19 166.42,-275.14"/>
<polygon fill="black" stroke="black" points="168.04,-272 157.84,-269.11 164.01,-277.73 168.04,-272"/>
</g>
<!-- 0x559f3f256060 -->
<g id="node6" class="node">
<title>0x559f3f256060</title>
<polygon fill="lightblue" stroke="black" points="277,-269 192,-269 192,-233 277,-233 277,-269"/>
<text text-anchor="middle" x="234.5" y="-247.3" font-family="Times,serif" font-size="14.00">Assign: iters</text>
</g>
<!-- Program&#45;&gt;0x559f3f256060 -->
<g id="edge6" class="edge">
<title>Program&#45;&gt;0x559f3f256060</title>
<path fill="none" stroke="black" d="M234.5,-305.81C234.5,-297.79 234.5,-288.05 234.5,-279.07"/>
<polygon fill="black" stroke="black" points="238,-279.03 234.5,-269.03 231,-279.03 238,-279.03"/>
</g>
<!-- 0x559f3f256fe0 -->
<g id="node8" class="node">
<title>0x559f3f256fe0</title>
<polygon fill="none" stroke="black" points="421.5,-269 367.5,-269 367.5,-233 421.5,-233 421.5,-269"/>
<text text-anchor="middle" x="394.5" y="-247.3" font-family="Times,serif" font-size="14.00">While</text>
</g>
<!-- Program&#45;&gt;0x559f3f256fe0 -->
<g id="edge22" class="edge">
<title>Program&#45;&gt;0x559f3f256fe0</title>
<path fill="none" stroke="black" d="M267.26,-308.46C293.68,-296.74 330.8,-280.27 358.13,-268.14"/>
<polygon fill="black" stroke="black" points="359.64,-271.3 367.36,-264.04 356.8,-264.9 359.64,-271.3"/>
</g>
<!-- 0x559f3f257030 -->
<g id="node24" class="node">
<title>0x559f3f257030</title>
<polygon fill="none" stroke="black" points="676.5,-269 622.5,-269 622.5,-233 676.5,-233 676.5,-269"/>
<text text-anchor="middle" x="649.5" y="-247.3" font-family="Times,serif" font-size="14.00">Print</text>
</g>
<!-- Program&#45;&gt;0x559f3f257030 -->
<g id="edge24" class="edge">
<title>Program&#45;&gt;0x559f3f257030</title>
<path fill="none" stroke="black" d="M267.06,-317.43C343.05,-304.43 531.69,-272.16 612.16,-258.39"/>
<polygon fill="black" stroke="black" points="613.06,-261.79 622.33,-256.65 611.88,-254.89 613.06,-261.79"/>
</g>
<!-- 0x559f3f255fa0 -->
<g id="node3" class="node">
<title>0x559f3f255fa0</title>
<polygon fill="none" stroke="black" points="67,-182 8,-182 8,-146 67,-146 67,-182"/>
<text text-anchor="middle" x="37.5" y="-160.3" font-family="Times,serif" font-size="14.00">Num: 0</text>
</g>
<!-- 0x559f3f2555e0&#45;&gt;0x559f3f255fa0 -->
<g id="edge1" class="edge">
<title>0x559f3f2555e0&#45;&gt;0x559f3f255fa0</title>
<path fill="none" stroke="black" d="M37.5,-232.8C37.5,-221.16 37.5,-205.55 37.5,-192.24"/>
<polygon fill="black" stroke="black" points="41,-192.18 37.5,-182.18 34,-192.18 41,-192.18"/>
</g>
<!-- 0x559f3f255fe0 -->
<g id="node5" class="node">
<title>0x559f3f255fe0</title>
<polygon fill="none" stroke="black" points="153,-182 94,-182 94,-146 153,-146 153,-182"/>
<text text-anchor="middle" x="123.5" y="-160.3" font-family="Times,serif" font-size="14.00">Num: 1</text>
</g>
<!-- 0x559f3f256000&#45;&gt;0x559f3f255fe0 -->
<g id="edge3" class="edge">
<title>0x559f3f256000&#45;&gt;0x559f3f255fe0</title>
<path fill="none" stroke="black" d="M131.48,-232.8C130.11,-221.16 128.27,-205.55 126.7,-192.24"/>
<polygon fill="black" stroke="black" points="130.17,-191.7 125.52,-182.18 123.21,-192.52 130.17,-191.7"/>
</g>
<!-- 0x559f3f255fc0 -->
<g id="node7" class="node">
<title>0x559f3f255fc0</title>
<polygon fill="none" stroke="black" points="225.5,-182 171.5,-182 171.5,-146 225.5,-146 225.5,-182"/>
<text text-anchor="middle" x="198.5" y="-160.3" font-family="Times,serif" font-size="14.00">Input</text>
</g>
<!-- 0x559f3f256060&#45;&gt;0x559f3f255fc0 -->
<g id="edge5" class="edge">
<title>0x559f3f256060&#45;&gt;0x559f3f255fc0</title>
<path fill="none" stroke="black" d="M227.21,-232.8C222.19,-220.93 215.41,-204.93 209.7,-191.45"/>
<polygon fill="black" stroke="black" points="212.9,-190.02 205.77,-182.18 206.45,-192.75 212.9,-190.02"/>
</g>
<!-- 0x559f3f2560d0 -->
<g id="node9" class="node">
<title>0x559f3f2560d0</title>
<polygon fill="lightyellow" stroke="black" points="297.5,-182 243.5,-182 243.5,-146 297.5,-146 297.5,-182"/>
<text text-anchor="middle" x="270.5" y="-160.3" font-family="Times,serif" font-size="14.00">&gt;</text>
</g>
<!-- 0x559f3f256fe0&#45;&gt;0x559f3f2560d0 -->
<g id="edge9" class="edge">
<title>0x559f3f256fe0&#45;&gt;0x559f3f2560d0</title>
<path fill="none" stroke="black" d="M369.41,-232.8C350.58,-219.9 324.62,-202.1 304.02,-187.98"/>
<polygon fill="black" stroke="black" points="305.78,-184.94 295.56,-182.18 301.83,-190.72 305.78,-184.94"/>
<text text-anchor="middle" x="354" y="-203.8" font-family="Times,serif" font-size="14.00" fill="#7f7f7f">cond</text>
</g>
<!-- 0x559f3f256130 -->
<g id="node12" class="node">
<title>0x559f3f256130</title>
<polygon fill="lightblue" stroke="black" points="399,-182 316,-182 316,-146 399,-146 399,-182"/>
<text text-anchor="middle" x="357.5" y="-160.3" font-family="Times,serif" font-size="14.00">Assign: tmp</text>
</g>
<!-- 0x559f3f256fe0&#45;&gt;0x559f3f256130 -->
<g id="edge11" class="edge">
<title>0x559f3f256fe0&#45;&gt;0x559f3f256130</title>
<path fill="none" stroke="black" d="M387.01,-232.8C381.85,-220.93 374.88,-204.93 369.01,-191.45"/>
<polygon fill="black" stroke="black" points="372.18,-189.95 364.98,-182.18 365.76,-192.74 372.18,-189.95"/>
<text text-anchor="middle" x="392.5" y="-203.8" font-family="Times,serif" font-size="14.00" fill="#7f7f7f">body</text>
</g>
<!-- 0x559f3f256de0 -->
<g id="node14" class="node">
<title>0x559f3f256de0</title>
<polygon fill="lightblue" stroke="black" points="492,-182 417,-182 417,-146 492,-146 492,-182"/>
<text text-anchor="middle" x="454.5" y="-160.3" font-family="Times,serif" font-size="14.00">Assign: fst</text>
</g>
<!-- 0x559f3f256fe0&#45;&gt;0x559f3f256de0 -->
<g id="edge13" class="edge">
<title>0x559f3f256fe0&#45;&gt;0x559f3f256de0</title>
<path fill="none" stroke="black" d="M406.64,-232.8C415.18,-220.7 426.76,-204.3 436.38,-190.67"/>
<polygon fill="black" stroke="black" points="439.47,-192.36 442.38,-182.18 433.75,-188.33 439.47,-192.36"/>
<text text-anchor="middle" x="442.5" y="-203.8" font-family="Times,serif" font-size="14.00" fill="#7f7f7f">body</text>
</g>
<!-- 0x559f3f256ea0 -->
<g id="node16" class="node">
<title>0x559f3f256ea0</title>
<polygon fill="lightblue" stroke="black" points="590.5,-182 510.5,-182 510.5,-146 590.5,-146 590.5,-182"/>
<text text-anchor="middle" x="550.5" y="-160.3" font-family="Times,serif" font-size="14.00">Assign: snd</text>
</g>
<!-- 0x559f3f256fe0&#45;&gt;0x559f3f256ea0 -->
<g id="edge17" class="edge">
<title>0x559f3f256fe0&#45;&gt;0x559f3f256ea0</title>
<path fill="none" stroke="black" d="M421.54,-235.81C433.51,-229.5 447.73,-221.93 460.5,-215 477.18,-205.95 495.5,-195.8 511.24,-187.03"/>
<polygon fill="black" stroke="black" points="513.14,-189.97 520.17,-182.04 509.73,-183.86 513.14,-189.97"/>
<text text-anchor="middle" x="502.5" y="-203.8" font-family="Times,serif" font-size="14.00" fill="#7f7f7f">body</text>
</g>
<!-- 0x559f3f256f70 -->
<g id="node20" class="node">
<title>0x559f3f256f70</title>
<polygon fill="lightblue" stroke="black" points="694,-182 609,-182 609,-146 694,-146 694,-182"/>
<text text-anchor="middle" x="651.5" y="-160.3" font-family="Times,serif" font-size="14.00">Assign: iters</text>
</g>
<!-- 0x559f3f256fe0&#45;&gt;0x559f3f256f70 -->
<g id="edge21" class="edge">
<title>0x559f3f256fe0&#45;&gt;0x559f3f256f70</title>
<path fill="none" stroke="black" d="M421.76,-243.22C447.43,-236.64 486.86,-226.07 520.5,-215 547.02,-206.28 576.08,-195.33 600.07,-185.91"/>
<polygon fill="black" stroke="black" points="601.66,-189.04 609.68,-182.11 599.09,-182.53 601.66,-189.04"/>
<text text-anchor="middle" x="575.5" y="-203.8" font-family="Times,serif" font-size="14.00" fill="#7f7f7f">body</text>
</g>
<!-- 0x559f3f2560a0 -->
<g id="node10" class="node">
<title>0x559f3f2560a0</title>
<polygon fill="none" stroke="black" points="228,-109 161,-109 161,-73 228,-73 228,-109"/>
<text text-anchor="middle" x="194.5" y="-87.3" font-family="Times,serif" font-size="14.00">Var: iters</text>
</g>
<!-- 0x559f3f2560d0&#45;&gt;0x559f3f2560a0 -->
<g id="edge7" class="edge">
<title>0x559f3f2560d0&#45;&gt;0x559f3f2560a0</title>
<path fill="none" stroke="black" d="M252.1,-145.81C242.49,-136.83 230.57,-125.69 220.07,-115.89"/>
<polygon fill="black" stroke="black" points="222.42,-113.3 212.73,-109.03 217.65,-118.41 222.42,-113.3"/>
</g>
<!-- 0x559f3f256040 -->
<g id="node11" class="node">
<title>0x559f3f256040</title>
<polygon fill="none" stroke="black" points="305,-109 246,-109 246,-73 305,-73 305,-109"/>
<text text-anchor="middle" x="275.5" y="-87.3" font-family="Times,serif" font-size="14.00">Num: 0</text>
</g>
<!-- 0x559f3f2560d0&#45;&gt;0x559f3f256040 -->
<g id="edge8" class="edge">
<title>0x559f3f2560d0&#45;&gt;0x559f3f256040</title>
<path fill="none" stroke="black" d="M271.71,-145.81C272.28,-137.79 272.96,-128.05 273.59,-119.07"/>
<polygon fill="black" stroke="black" points="277.09,-119.25 274.3,-109.03 270.11,-118.76 277.09,-119.25"/>
</g>
<!-- 0x559f3f256100 -->
<g id="node13" class="node">
<title>0x559f3f256100</title>
<polygon fill="none" stroke="black" points="386,-109 329,-109 329,-73 386,-73 386,-109"/>
<text text-anchor="middle" x="357.5" y="-87.3" font-family="Times,serif" font-size="14.00">Var: fst</text>
</g>
<!-- 0x559f3f256130&#45;&gt;0x559f3f256100 -->
<g id="edge10" class="edge">
<title>0x559f3f256130&#45;&gt;0x559f3f256100</title>
<path fill="none" stroke="black" d="M357.5,-145.81C357.5,-137.79 357.5,-128.05 357.5,-119.07"/>
<polygon fill="black" stroke="black" points="361,-119.03 357.5,-109.03 354,-119.03 361,-119.03"/>
</g>
<!-- 0x559f3f256db0 -->
<g id="node15" class="node">
<title>0x559f3f256db0</title>
<polygon fill="none" stroke="black" points="485.5,-109 423.5,-109 423.5,-73 485.5,-73 485.5,-109"/>
<text text-anchor="middle" x="454.5" y="-87.3" font-family="Times,serif" font-size="14.00">Var: snd</text>
</g>
<!-- 0x559f3f256de0&#45;&gt;0x559f3f256db0 -->
<g id="edge12" class="edge">
<title>0x559f3f256de0&#45;&gt;0x559f3f256db0</title>
<path fill="none" stroke="black" d="M454.5,-145.81C454.5,-137.79 454.5,-128.05 454.5,-119.07"/>
<polygon fill="black" stroke="black" points="458,-119.03 454.5,-109.03 451,-119.03 458,-119.03"/>
</g>
<!-- 0x559f3f256e70 -->
<g id="node17" class="node">
<title>0x559f3f256e70</title>
<polygon fill="lightyellow" stroke="black" points="577.5,-109 523.5,-109 523.5,-73 577.5,-73 577.5,-109"/>
<text text-anchor="middle" x="550.5" y="-87.3" font-family="Times,serif" font-size="14.00">+</text>
</g>
<!-- 0x559f3f256ea0&#45;&gt;0x559f3f256e70 -->
<g id="edge16" class="edge">
<title>0x559f3f256ea0&#45;&gt;0x559f3f256e70</title>
<path fill="none" stroke="black" d="M550.5,-145.81C550.5,-137.79 550.5,-128.05 550.5,-119.07"/>
<polygon fill="black" stroke="black" points="554,-119.03 550.5,-109.03 547,-119.03 554,-119.03"/>
</g>
<!-- 0x559f3f256170 -->
<g id="node18" class="node">
<title>0x559f3f256170</title>
<polygon fill="none" stroke="black" points="507.5,-36 445.5,-36 445.5,0 507.5,0 507.5,-36"/>
<text text-anchor="middle" x="476.5" y="-14.3" font-family="Times,serif" font-size="14.00">Var: snd</text>
</g>
<!-- 0x559f3f256e70&#45;&gt;0x559f3f256170 -->
<g id="edge14" class="edge">
<title>0x559f3f256e70&#45;&gt;0x559f3f256170</title>
<path fill="none" stroke="black" d="M532.59,-72.81C523.32,-63.92 511.84,-52.91 501.69,-43.17"/>
<polygon fill="black" stroke="black" points="503.89,-40.43 494.25,-36.03 499.04,-45.48 503.89,-40.43"/>
</g>
<!-- 0x559f3f256e40 -->
<g id="node19" class="node">
<title>0x559f3f256e40</title>
<polygon fill="none" stroke="black" points="591,-36 526,-36 526,0 591,0 591,-36"/>
<text text-anchor="middle" x="558.5" y="-14.3" font-family="Times,serif" font-size="14.00">Var: tmp</text>
</g>
<!-- 0x559f3f256e70&#45;&gt;0x559f3f256e40 -->
<g id="edge15" class="edge">
<title>0x559f3f256e70&#45;&gt;0x559f3f256e40</title>
<path fill="none" stroke="black" d="M552.44,-72.81C553.34,-64.79 554.44,-55.05 555.45,-46.07"/>
<polygon fill="black" stroke="black" points="558.94,-46.36 556.58,-36.03 551.98,-45.57 558.94,-46.36"/>
</g>
<!-- 0x559f3f256f40 -->
<g id="node21" class="node">
<title>0x559f3f256f40</title>
<polygon fill="lightyellow" stroke="black" points="678.5,-109 624.5,-109 624.5,-73 678.5,-73 678.5,-109"/>
<text text-anchor="middle" x="651.5" y="-87.3" font-family="Times,serif" font-size="14.00">&#45;</text>
</g>
<!-- 0x559f3f256f70&#45;&gt;0x559f3f256f40 -->
<g id="edge20" class="edge">
<title>0x559f3f256f70&#45;&gt;0x559f3f256f40</title>
<path fill="none" stroke="black" d="M651.5,-145.81C651.5,-137.79 651.5,-128.05 651.5,-119.07"/>
<polygon fill="black" stroke="black" points="655,-119.03 651.5,-109.03 648,-119.03 655,-119.03"/>
</g>
<!-- 0x559f3f256f10 -->
<g id="node22" class="node">
<title>0x559f3f256f10</title>
<polygon fill="none" stroke="black" points="681,-36 614,-36 614,0 681,0 681,-36"/>
<text text-anchor="middle" x="647.5" y="-14.3" font-family="Times,serif" font-size="14.00">Var: iters</text>
</g>
<!-- 0x559f3f256f40&#45;&gt;0x559f3f256f10 -->
<g id="edge18" class="edge">
<title>0x559f3f256f40&#45;&gt;0x559f3f256f10</title>
<path fill="none" stroke="black" d="M650.53,-72.81C650.08,-64.79 649.53,-55.05 649.03,-46.07"/>
<polygon fill="black" stroke="black" points="652.52,-45.82 648.46,-36.03 645.53,-46.21 652.52,-45.82"/>
</g>
<!-- 0x559f3f256e20 -->
<g id="node23" class="node">
<title>0x559f3f256e20</title>
<polygon fill="none" stroke="black" points="758,-36 699,-36 699,0 758,0 758,-36"/>
<text text-anchor="middle" x="728.5" y="-14.3" font-family="Times,serif" font-size="14.00">Num: 1</text>
</g>
<!-- 0x559f3f256f40&#45;&gt;0x559f3f256e20 -->
<g id="edge19" class="edge">
<title>0x559f3f256f40&#45;&gt;0x559f3f256e20</title>
<path fill="none" stroke="black" d="M670.14,-72.81C679.88,-63.83 691.96,-52.69 702.6,-42.89"/>
<polygon fill="black" stroke="black" points="705.05,-45.38 710.03,-36.03 700.31,-40.23 705.05,-45.38"/>
</g>
<!-- 0x559f3f257000 -->
<g id="node25" class="node">
<title>0x559f3f257000</title>
<polygon fill="none" stroke="black" points="774.5,-182 712.5,-182 712.5,-146 774.5,-146 774.5,-182"/>
<text text-anchor="middle" x="743.5" y="-160.3" font-family="Times,serif" font-size="14.00">Var: snd</text>
</g>
<!-- 0x559f3f257030&#45;&gt;0x559f3f257000 -->
<g id="edge23" class="edge">
<title>0x559f3f257030&#45;&gt;0x559f3f257000</title>
<path fill="none" stroke="black" d="M668.52,-232.8C682.41,-220.24 701.42,-203.05 716.83,-189.12"/>
<polygon fill="black" stroke="black" points="719.44,-191.48 724.51,-182.18 714.74,-186.29 719.44,-191.48"/>
</g>
</g>
</svg>
